<svg width="24" height="25" viewBox="0 0 24 25" fill="none" xmlns="http://www.w3.org/2000/svg">
<path fill-rule="evenodd" clip-rule="evenodd" d="M12.7071 6.20711C13.0976 5.81658 13.0976 5.18342 12.7071 4.79289C12.3166 4.40237 11.6834 4.40237 11.2929 4.79289L4.29289 11.7929C3.90237 12.1834 3.90237 12.8166 4.29289 13.2071L11.2929 20.2071C11.6834 20.5976 12.3166 20.5976 12.7071 20.2071C13.0976 19.8166 13.0976 19.1834 12.7071 18.7929L7.41421 13.5H19C19.5523 13.5 20 13.0523 20 12.5C20 11.9477 19.5523 11.5 19 11.5H7.41421L12.7071 6.20711Z" fill="#232323"/>
<path fill-rule="evenodd" clip-rule="evenodd" d="M12.7071 6.20711C13.0976 5.81658 13.0976 5.18342 12.7071 4.79289C12.3166 4.40237 11.6834 4.40237 11.2929 4.79289L4.29289 11.7929C3.90237 12.1834 3.90237 12.8166 4.29289 13.2071L11.2929 20.2071C11.6834 20.5976 12.3166 20.5976 12.7071 20.2071C13.0976 19.8166 13.0976 19.1834 12.7071 18.7929L7.41421 13.5H19C19.5523 13.5 20 13.0523 20 12.5C20 11.9477 19.5523 11.5 19 11.5H7.41421L12.7071 6.20711Z" fill="black" fill-opacity="0.2"/>
<path fill-rule="evenodd" clip-rule="evenodd" d="M12.7071 6.20711C13.0976 5.81658 13.0976 5.18342 12.7071 4.79289C12.3166 4.40237 11.6834 4.40237 11.2929 4.79289L4.29289 11.7929C3.90237 12.1834 3.90237 12.8166 4.29289 13.2071L11.2929 20.2071C11.6834 20.5976 12.3166 20.5976 12.7071 20.2071C13.0976 19.8166 13.0976 19.1834 12.7071 18.7929L7.41421 13.5H19C19.5523 13.5 20 13.0523 20 12.5C20 11.9477 19.5523 11.5 19 11.5H7.41421L12.7071 6.20711Z" fill="black" fill-opacity="0.2"/>
</svg>
