<svg width="63" height="69" viewBox="0 0 63 69" fill="none" xmlns="http://www.w3.org/2000/svg">
<rect x="0.75" y="4.64661" width="60.6384" height="62.9833" rx="3.75" fill="#465235" stroke="black" stroke-width="1.5"/>
<g filter="url(#filter0_i_58_246)">
<rect width="62.1384" height="64.4833" rx="4.5" fill="#687051"/>
</g>
<rect x="0.75" y="0.75" width="60.6384" height="62.9833" rx="3.75" stroke="black" stroke-width="1.5"/>
<g clip-path="url(#clip0_58_246)">
<path d="M39.1285 21.8502C39.1343 24.2642 39.1392 26.6791 39.145 29.0931C39.145 29.3018 39.1548 29.5114 39.1606 29.7201C39.154 30.5415 39.1417 31.3629 39.1433 32.1852C39.1458 34.2187 39.1548 36.253 39.1606 38.2865C39.1548 40.9109 39.1516 43.5353 39.1433 46.1597C39.1384 47.645 38.1683 48.7807 36.7371 48.976C36.1153 49.0607 35.5331 48.9182 35.0044 48.5871C31.4923 46.3893 27.9834 44.1866 24.4736 41.9846C24.4794 41.9544 24.486 41.9243 24.4926 41.8941C24.6754 41.8279 24.7511 41.6502 24.8524 41.5102C26.6444 39.0358 28.4272 36.5539 30.2191 34.0795C32.4566 30.9891 34.6981 27.902 36.9421 24.8166C37.6643 23.8233 38.3997 22.8385 39.1285 21.8502Z" fill="#C2C2C2"/>
<path d="M39.1287 21.8502C38.3999 22.8385 37.6645 23.8233 36.9423 24.8166C34.6983 27.902 32.4567 30.9891 30.2193 34.0795C28.4274 36.5539 26.6445 39.0358 24.8526 41.5102C24.7513 41.6502 24.6756 41.8279 24.4928 41.8941C24.4878 41.7122 24.4796 41.5311 24.4796 41.3501C24.4763 36.2379 24.4746 31.1257 24.4722 26.0144C27.949 23.8367 31.4266 21.6583 34.9033 19.4806C35.8619 18.8805 36.846 18.8243 37.8185 19.4144C38.7128 19.9567 39.1575 20.779 39.1295 21.8511L39.1287 21.8502Z" fill="white"/>
<path d="M25.9715 24.5154L25.9722 26.0129L25.9796 41.3486V41.3493C25.9796 41.4536 25.9827 41.5475 25.9865 41.6646C25.9883 41.7207 25.9903 41.782 25.9922 41.8524L25.9967 42.015L25.9662 42.1748C25.964 42.1861 25.9618 42.197 25.9599 42.207C25.9572 42.2203 25.9549 42.2317 25.9533 42.2394L25.948 42.2653L25.7156 43.482L24.477 43.4838C23.8373 43.4848 23.1895 43.4895 22.5366 43.4943C20.9768 43.5056 19.3884 43.5172 17.815 43.4784L25.9715 24.5154ZM25.9715 24.5154L24.474 24.5136M25.9715 24.5154L24.474 24.5136M24.474 24.5136C23.8271 24.5129 23.1749 24.5097 22.5196 24.5066C21.004 24.4993 19.4714 24.492 17.9485 24.5138L17.9484 24.5138M24.474 24.5136L17.9484 24.5138M17.9484 24.5138C15.4084 24.5503 13.5172 26.5675 13.5087 29.0577L17.9484 24.5138Z" fill="#687051" stroke="#465235" stroke-width="3"/>
<path d="M39.6573 30.2622C39.6564 30.3587 39.6555 30.455 39.6546 30.5513C39.6493 31.0972 39.644 31.6398 39.6446 32.1846L39.6573 30.2622ZM39.6573 30.2622C41.5089 30.5346 42.8495 32.065 42.8469 34.0026C42.8442 35.9469 41.5089 37.4714 39.6601 37.7441C39.6592 37.4728 39.6582 37.2015 39.6573 36.9303C39.6519 35.3481 39.6465 33.7662 39.6446 32.1847L39.6573 30.2622Z" fill="#465235" stroke="black"/>
</g>
<defs>
<filter id="filter0_i_58_246" x="-0.5" y="0" width="62.6382" height="65.4833" filterUnits="userSpaceOnUse" color-interpolation-filters="sRGB">
<feFlood flood-opacity="0" result="BackgroundImageFix"/>
<feBlend mode="normal" in="SourceGraphic" in2="BackgroundImageFix" result="shape"/>
<feColorMatrix in="SourceAlpha" type="matrix" values="0 0 0 0 0 0 0 0 0 0 0 0 0 0 0 0 0 0 127 0" result="hardAlpha"/>
<feMorphology radius="0.5" operator="erode" in="SourceAlpha" result="effect1_innerShadow_58_246"/>
<feOffset dx="-0.5" dy="1"/>
<feGaussianBlur stdDeviation="0.45"/>
<feComposite in2="hardAlpha" operator="arithmetic" k2="-1" k3="1"/>
<feColorMatrix type="matrix" values="0 0 0 0 0 0 0 0 0 0 0 0 0 0 0 0 0 0 0.49 0"/>
<feBlend mode="normal" in2="shape" result="effect1_innerShadow_58_246"/>
</filter>
<clipPath id="clip0_58_246">
<rect width="40" height="40" fill="white" transform="translate(11 14.1899)"/>
</clipPath>
</defs>
</svg>
