<svg width="32" height="32" viewBox="0 0 32 32" fill="none" xmlns="http://www.w3.org/2000/svg">
<path fill-rule="evenodd" clip-rule="evenodd" d="M2.3424 2.3424C0 4.688 0 8.4576 0 16C0 23.5424 0 27.3136 2.3424 29.656C4.688 32 8.4576 32 16 32C23.5424 32 27.3136 32 29.656 29.656C32 27.3152 32 23.5456 32 16C32 8.4544 32 4.6864 29.656 2.3424C27.3152 0 23.5424 0 16 0C8.4576 0 4.6864 0 2.3424 2.3424ZM11.6144 9.5584C11.7302 9.45135 11.8237 9.32254 11.8897 9.17933C11.9557 9.03612 11.9929 8.88131 11.999 8.72375C12.0052 8.56619 11.9803 8.40896 11.9257 8.26103C11.8711 8.1131 11.7879 7.97737 11.6808 7.8616C11.5737 7.74583 11.4449 7.65227 11.3017 7.58628C11.1585 7.52029 11.0037 7.48315 10.8462 7.47698C10.6886 7.47082 10.5314 7.49574 10.3834 7.55034C10.2355 7.60494 10.0998 7.68815 9.984 7.7952L6.384 11.1184C6.26232 11.2308 6.16522 11.3671 6.09881 11.5188C6.0324 11.6705 5.99811 11.8344 5.99811 12C5.99811 12.1656 6.0324 12.3295 6.09881 12.4812C6.16522 12.6329 6.26232 12.7692 6.384 12.8816L9.984 16.2048C10.2178 16.4208 10.5279 16.5351 10.8459 16.5225C11.164 16.5099 11.464 16.3714 11.68 16.1376C11.896 15.9038 12.0103 15.5937 11.9977 15.2757C11.9851 14.9576 11.8466 14.6576 11.6128 14.4416L10.2688 13.2H19.2608C20.397 13.2218 21.4793 13.6885 22.2751 14.4997C23.0709 15.311 23.5167 16.402 23.5167 17.5384C23.5167 18.6748 23.0709 19.7658 22.2751 20.5771C21.4793 21.3883 20.397 21.855 19.2608 21.8768H12C11.6817 21.8768 11.3765 22.0032 11.1515 22.2283C10.9264 22.4533 10.8 22.7585 10.8 23.0768C10.8 23.3951 10.9264 23.7003 11.1515 23.9253C11.3765 24.1504 11.6817 24.2768 12 24.2768H19.2624C21.0316 24.2495 22.719 23.5276 23.9605 22.2669C25.2019 21.0061 25.8978 19.3078 25.8978 17.5384C25.8978 15.769 25.2019 14.0707 23.9605 12.8099C22.719 11.5492 21.0316 10.8273 19.2624 10.8H10.2704L11.6144 9.5584Z" fill="#C6C6C6"/>
</svg>
