<svg width="63" height="69" viewBox="0 0 63 69" fill="none" xmlns="http://www.w3.org/2000/svg">
<rect x="0.75" y="4.64661" width="60.6384" height="62.9833" rx="3.75" fill="#465235" stroke="black" stroke-width="1.5"/>
<g filter="url(#filter0_i_88_1317)">
<rect width="62.1384" height="64.4833" rx="4.5" fill="#687051"/>
</g>
<rect x="0.75" y="0.75" width="60.6384" height="62.9833" rx="3.75" stroke="black" stroke-width="1.5"/>
<path d="M34.1285 21.6604C34.1343 24.0744 34.1392 26.4893 34.145 28.9033C34.145 29.112 34.1548 29.3215 34.1606 29.5303C34.154 30.3517 34.1417 31.1731 34.1433 31.9954C34.1458 34.0289 34.1548 36.0632 34.1606 38.0967C34.1548 40.7211 34.1516 43.3455 34.1433 45.9699C34.1384 47.4551 33.1683 48.5909 31.7371 48.7862C31.1153 48.8709 30.5331 48.7284 30.0044 48.3973C26.4923 46.1995 22.9834 43.9967 19.4736 41.7948C19.4794 41.7646 19.486 41.7344 19.4926 41.7043C19.6754 41.638 19.7511 41.4603 19.8524 41.3204C21.6444 38.846 23.4272 36.3641 25.2191 33.8897C27.4566 30.7993 29.6981 27.7122 31.9421 24.6268C32.6643 23.6335 33.3997 22.6486 34.1285 21.6604Z" fill="#C2C2C2"/>
<path d="M34.1287 21.6603C33.3999 22.6485 32.6645 23.6334 31.9423 24.6267C29.6983 27.7121 27.4567 30.7992 25.2193 33.8896C23.4274 36.364 21.6445 38.8459 19.8526 41.3202C19.7513 41.4602 19.6756 41.6379 19.4928 41.7041C19.4878 41.5222 19.4796 41.3412 19.4796 41.1601C19.4763 36.048 19.4746 30.9358 19.4722 25.8244C22.949 23.6468 26.4266 21.4683 29.9033 19.2907C30.8619 18.6905 31.846 18.6344 32.8185 19.2245C33.7128 19.7668 34.1575 20.5891 34.1295 21.6611L34.1287 21.6603Z" fill="white"/>
<path d="M20.9715 24.3254L20.9722 25.823L20.9796 41.1587V41.1594C20.9796 41.2636 20.9827 41.3575 20.9865 41.4747C20.9883 41.5307 20.9903 41.5921 20.9922 41.6625L20.9967 41.8251L20.9662 41.9848C20.964 41.9961 20.9618 42.0071 20.9599 42.017C20.9572 42.0303 20.9549 42.0417 20.9533 42.0494L20.948 42.0754L20.7156 43.292L19.477 43.2939C18.8373 43.2949 18.1895 43.2996 17.5366 43.3043C15.9768 43.3157 14.3884 43.3273 12.815 43.2884L20.9715 24.3254ZM20.9715 24.3254L19.474 24.3237M20.9715 24.3254L19.474 24.3237M19.474 24.3237C18.8271 24.3229 18.1749 24.3198 17.5196 24.3167C16.004 24.3094 14.4714 24.302 12.9485 24.3238L12.9484 24.3238M19.474 24.3237L12.9484 24.3238M12.9484 24.3238C10.4084 24.3604 8.51717 26.3776 8.50866 28.8678L12.9484 24.3238Z" fill="#687051" stroke="#465235" stroke-width="3"/>
<path d="M34.6573 30.0722C34.6564 30.1686 34.6555 30.265 34.6546 30.3612C34.6493 30.9072 34.644 31.4497 34.6446 31.9946L34.6573 30.0722ZM34.6573 30.0722C36.5089 30.3445 37.8495 31.875 37.8469 33.8125C37.8442 35.7569 36.5089 37.2813 34.6601 37.554C34.6592 37.2827 34.6582 37.0115 34.6573 36.7402C34.6519 35.158 34.6465 33.5762 34.6446 31.9947L34.6573 30.0722Z" fill="#465235" stroke="black"/>
<path d="M54.5508 33.0784C54.5049 37.0991 53.1235 40.4437 50.332 43.3339C49.7595 43.9264 49.2763 44.667 48.2534 44.8798C47.5168 45.0324 46.725 44.7951 46.2208 44.1781C45.8624 43.7404 45.9241 42.806 46.3495 42.4028C47.3251 41.4795 48.2626 40.5406 48.969 39.4391C49.77 38.1917 50.353 36.8841 50.5998 35.4864C51.1014 32.6541 50.6839 29.9343 49.0491 27.3894C48.3874 26.3603 47.5601 25.4325 46.6082 24.5872C45.823 23.89 45.7507 22.9823 46.4637 22.3597C47.2752 21.6513 48.3217 21.6179 49.1818 22.3162C49.858 22.8664 50.4515 23.4857 51.003 24.1283C52.8504 26.2801 53.9468 28.6936 54.4011 31.3165C54.518 31.9903 54.518 32.6786 54.5495 33.0773L54.5508 33.0784Z" fill="white"/>
<path d="M42.3392 26.0272C42.9353 25.9904 43.4054 26.2109 43.7783 26.5763C45.6468 28.4028 46.8206 30.4588 46.9021 32.9369C46.9979 35.8282 45.9501 38.303 43.4921 40.3289C42.85 40.8579 41.6892 40.8991 41.055 40.4146C40.3131 39.8466 40.1648 38.8944 40.799 38.2751C41.9466 37.1547 42.8657 35.9541 43.1205 34.4427C43.4461 32.5114 42.9406 30.7751 41.529 29.2337C41.2231 28.8995 40.82 28.6077 40.606 28.2369C39.977 27.1454 40.8843 26.0216 42.3379 26.0305L42.3392 26.0272Z" fill="white"/>
<defs>
<filter id="filter0_i_88_1317" x="-0.5" y="0" width="62.6382" height="65.4833" filterUnits="userSpaceOnUse" color-interpolation-filters="sRGB">
<feFlood flood-opacity="0" result="BackgroundImageFix"/>
<feBlend mode="normal" in="SourceGraphic" in2="BackgroundImageFix" result="shape"/>
<feColorMatrix in="SourceAlpha" type="matrix" values="0 0 0 0 0 0 0 0 0 0 0 0 0 0 0 0 0 0 127 0" result="hardAlpha"/>
<feMorphology radius="0.5" operator="erode" in="SourceAlpha" result="effect1_innerShadow_88_1317"/>
<feOffset dx="-0.5" dy="1"/>
<feGaussianBlur stdDeviation="0.45"/>
<feComposite in2="hardAlpha" operator="arithmetic" k2="-1" k3="1"/>
<feColorMatrix type="matrix" values="0 0 0 0 0 0 0 0 0 0 0 0 0 0 0 0 0 0 0.49 0"/>
<feBlend mode="normal" in2="shape" result="effect1_innerShadow_88_1317"/>
</filter>
</defs>
</svg>
