<svg width="38" height="212" viewBox="0 0 1338 212" fill="none" xmlns="http://www.w3.org/2000/svg">
<path d="M0.25 60.5714L56 85.8411C111.75 110.732 223.25 161.839 334.75 141.302C446.25 121.143 557.75 30.2857 669.25 10.1268C780.75 -10.4107 892.25 40.6964 1003.75 50.4446C1115.25 60.5714 1226.75 30.2857 1282.5 15.1429L1338.25 0V212H1282.5C1226.75 212 1115.25 212 1003.75 212C892.25 212 780.75 212 669.25 212C557.75 212 446.25 212 334.75 212C223.25 212 111.75 212 56 212H0.25V60.5714Z" fill="#D6E1C1"/>
</svg>